<svg width="10" height="10" viewBox="0 0 10 10" fill="none" xmlns="http://www.w3.org/2000/svg">
<path fill-rule="evenodd" clip-rule="evenodd" d="M9.24264 0.757249C9.63316 1.14777 9.63316 1.78094 9.24264 2.17146L6.41421 4.99989L9.24264 7.82832C9.63316 8.21884 9.63316 8.85201 9.24264 9.24253C8.85211 9.63305 8.21895 9.63305 7.82842 9.24253L5 6.4141L2.17157 9.24253C1.78105 9.63305 1.14788 9.63305 0.757356 9.24253C0.366832 8.85201 0.366832 8.21884 0.757356 7.82832L3.58578 4.99989L0.757356 2.17146C0.366831 1.78094 0.366831 1.14777 0.757355 0.75725C1.14788 0.366726 1.78104 0.366726 2.17157 0.75725L5 3.58568L7.82842 0.757249C8.21895 0.366724 8.85211 0.366724 9.24264 0.757249Z" fill="black"/>
</svg>
