<svg width="13" height="13" viewBox="0 0 13 13" fill="none" xmlns="http://www.w3.org/2000/svg">
<path fill-rule="evenodd" clip-rule="evenodd" d="M7.83073 0.625816C8.66059 -0.204047 10.0061 -0.204049 10.8359 0.625816L12.3741 2.16401C13.204 2.99388 13.204 4.33935 12.3741 5.16922L4.87587 12.6675C4.74303 12.8003 4.56286 12.8749 4.375 12.8749H0.833333C0.442132 12.8749 0.125 12.5578 0.125 12.1666V8.62495C0.125 8.43709 0.199628 8.25692 0.332466 8.12408L7.83073 0.625816ZM9.8342 1.62755C9.55758 1.35093 9.10909 1.35093 8.83247 1.62755L8.21007 2.24995L10.75 4.78988L11.3724 4.16748C11.649 3.89086 11.649 3.44237 11.3724 3.16575L9.8342 1.62755ZM9.74827 5.79162L7.20833 3.25168L1.54167 8.91835V11.4583H4.0816L9.74827 5.79162Z" fill="black"/>
</svg>
